<svg width="69" height="24" viewBox="0 0 69 24" fill="none" xmlns="http://www.w3.org/2000/svg">
<g clip-path="url(#clip0_606_21)">
<path d="M22.1421 16.0807C22.4735 16.3228 22.6414 16.6693 22.6414 17.1118C22.6414 17.3039 22.6051 17.5126 22.537 17.7464L21.3977 21.4618C21.0981 22.3719 20.6805 23.0064 20.1358 23.3655C19.5957 23.7245 18.7968 23.904 17.7346 23.904H1.52066C1.03951 23.904 0.662758 23.8288 0.399486 23.6827C0.136214 23.5366 0.00457764 23.3321 0.00457764 23.0816C0.00457764 22.9563 0.040891 22.8186 0.108979 22.6683C0.177066 22.4971 0.295085 22.3552 0.453956 22.2383C0.617366 22.1214 0.789855 22.0129 0.971422 21.9043C1.3391 21.6914 1.63868 21.4743 1.87018 21.2531C2.10168 21.0318 2.29686 20.6645 2.45573 20.1593L7.43975 3.80727C7.53053 3.53174 7.57592 3.26874 7.57592 3.01408C7.57592 2.7803 7.53507 2.5841 7.45336 2.42546C7.37166 2.26682 7.26272 2.08314 7.12654 1.87023C6.91774 1.59471 6.81788 1.37345 6.81788 1.20229C6.81788 1.13967 6.84058 1.02278 6.88597 0.851621C6.97675 0.576094 7.18101 0.379887 7.48968 0.262997C7.79834 0.146107 8.27949 0.0876617 8.92406 0.0876617H17.0356C17.5167 0.0876617 17.8935 0.158631 18.1567 0.292219C18.42 0.429982 18.5516 0.62619 18.5516 0.880843C18.5516 0.985209 18.5153 1.12297 18.4472 1.29413C18.3792 1.44024 18.2793 1.57383 18.1522 1.69072C18.0251 1.80761 17.9116 1.89111 17.8072 1.94538C17.7028 1.99965 17.6302 2.04557 17.5848 2.08731C17.2171 2.27935 16.9175 2.48808 16.686 2.72186C16.4546 2.95564 16.2594 3.31466 16.1005 3.80309L10.8668 20.8523H13.0048C13.5359 20.8523 13.9898 20.7688 14.3665 20.5977C14.7478 20.4265 15.1427 20.1092 15.5558 19.6458L17.9389 17.0409C18.3746 16.5775 18.7968 16.2352 19.2008 16.0264C19.6047 15.8135 20.0904 15.7092 20.6669 15.7092C21.3115 15.7092 21.8017 15.8302 22.1331 16.0724L22.1421 16.0807Z" fill="black"/>
<path d="M35.3784 7.81076C36.0002 8.27832 36.3089 8.91286 36.3089 9.71439C36.3089 10.2028 36.2272 10.6662 36.0683 11.1129L32.8909 20.606C32.8228 20.8607 32.7865 21.0819 32.7865 21.274C32.7865 21.5495 32.8455 21.7666 32.959 21.9252C33.0724 22.0838 33.2359 22.2383 33.4401 22.3844C33.599 22.5305 33.717 22.6558 33.7851 22.7476C33.8532 22.8436 33.8668 22.9647 33.8214 23.1108C33.7079 23.3863 33.4764 23.5867 33.1315 23.712C32.7865 23.8372 32.2554 23.904 31.5427 23.904H23.6718C23.0726 23.904 22.6369 23.8163 22.36 23.6326C22.0831 23.4531 21.9923 23.2152 22.0831 22.9188C22.1739 22.6641 22.419 22.4429 22.8094 22.2508C23.1544 22.0797 23.4403 21.8793 23.6718 21.6497C23.9033 21.4159 24.0985 21.0444 24.2574 20.5392L27.2623 11.3634C27.3304 11.1713 27.3667 11.0127 27.3667 10.8875C27.3667 10.6537 27.3077 10.47 27.1942 10.3322C27.0807 10.1945 26.9082 10.0525 26.6768 9.90225C26.4453 9.73109 26.2864 9.58498 26.1956 9.45974C26.1048 9.3345 26.0912 9.16334 26.1593 8.95043C26.2955 8.462 27.0217 8.03619 28.3335 7.66464C29.6454 7.2931 31.0162 7.10942 32.4415 7.10942C33.776 7.10942 34.7565 7.3432 35.3738 7.80658L35.3784 7.81076ZM36.9988 0.905903C37.598 1.44443 37.8976 2.1082 37.8976 2.88886C37.8976 3.43991 37.7433 3.97844 37.4301 4.50862C37.1214 5.0388 36.6811 5.46461 36.1182 5.79441C35.5554 6.1242 34.929 6.28701 34.239 6.28701C33.363 6.28701 32.6321 6.01566 32.0466 5.47713C31.461 4.9386 31.1569 4.26649 31.1297 3.46078C31.1297 2.9306 31.2795 2.40877 31.5791 1.89112C31.8786 1.37346 32.3053 0.943475 32.8546 0.605329C33.4083 0.267184 34.0393 0.0960236 34.7519 0.0960236C35.6507 0.0960236 36.3951 0.367375 36.9943 0.905903H36.9988Z" fill="black"/>
<path d="M48.6009 5.04714C48.5102 5.3018 48.4648 5.58567 48.4648 5.90295C48.4648 6.3705 48.5692 6.75457 48.7734 7.0635C48.9822 7.37242 49.2773 7.52271 49.6722 7.52271H57.1301C60.1668 7.52271 61.6874 8.4119 61.6874 10.1903C61.6874 10.6328 61.6057 11.0795 61.4468 11.522L58.4101 20.6018C58.342 20.8565 58.3057 21.0778 58.3057 21.2698C58.3057 21.5453 58.3647 21.7624 58.4782 21.921C58.5917 22.0797 58.7551 22.2341 58.9593 22.3802C59.1182 22.5264 59.2362 22.6516 59.3043 22.7434C59.3724 22.8395 59.386 22.9605 59.3406 23.1066C59.2271 23.3822 58.9957 23.5825 58.6507 23.7078C58.3057 23.833 57.7746 23.8998 57.062 23.8998H49.191C48.5919 23.8998 48.1561 23.8121 47.8792 23.6285C47.6023 23.449 47.5115 23.211 47.6023 22.9146C47.6931 22.6599 47.9337 22.4387 48.3286 22.2467C48.6736 22.0755 48.9595 21.8751 49.191 21.6455C49.4225 21.4117 49.6177 21.0402 49.7766 20.5351L53.1265 10.3114H48.6736L45.2556 20.5977C45.1875 20.8523 45.1512 21.0736 45.1512 21.2656C45.1512 21.5411 45.2102 21.7582 45.3237 21.9169C45.4371 22.0755 45.6005 22.23 45.8048 22.3761C45.9637 22.5222 46.0817 22.6474 46.1498 22.7393C46.2179 22.8353 46.2315 22.9563 46.1861 23.1025C46.0726 23.378 45.8411 23.5784 45.4961 23.7036C45.1512 23.8288 44.6201 23.8956 43.9074 23.8956H36.0365C35.4373 23.8956 35.0016 23.808 34.7247 23.6243C34.4478 23.4448 34.357 23.2068 34.4478 22.9104C34.5386 22.6558 34.7837 22.4345 35.1741 22.2425C35.519 22.0713 35.8095 21.8709 36.0365 21.6413C36.268 21.4076 36.4632 21.036 36.6221 20.5309L39.3138 12.4029C39.4273 12.0856 39.4863 11.7558 39.4863 11.4176C39.4863 10.996 39.3864 10.662 39.1912 10.4157C38.996 10.1736 38.701 9.90225 38.3106 9.60585C38.0564 9.41382 37.8658 9.25101 37.7432 9.11324C37.6161 8.97548 37.5526 8.81267 37.5526 8.62064C37.5299 8.21987 37.6842 7.93182 38.0201 7.76483C38.3515 7.59785 38.9915 7.51018 39.9357 7.51018H40.8344C40.7209 7.10942 40.6619 6.62098 40.6619 6.04906C40.6619 5.41451 40.7527 4.82171 40.9388 4.27066C41.8603 1.71161 44.5838 0.429993 49.1184 0.429993C50.4983 0.429993 51.8328 0.613677 53.122 0.98522C54.4111 1.35676 55.7819 1.93286 57.2299 2.71352C57.5295 1.86607 58.0243 1.2023 58.7142 0.713869C59.4042 0.225436 60.1622 -0.0166931 60.9929 -0.0166931C62.0278 -0.0166931 62.8358 0.275532 63.4077 0.855806C63.9842 1.44026 64.2702 2.12907 64.2702 2.93478C64.2702 3.25205 64.2112 3.59019 64.0977 3.94921C63.8208 4.75492 63.3442 5.37694 62.6633 5.82363C61.9824 6.26614 61.1745 6.49157 60.2303 6.49157C59.6084 6.49157 58.9775 6.35798 58.3329 6.09498C57.6884 5.83198 56.8486 5.43539 55.8137 4.90521C54.7788 4.35415 53.9027 3.93669 53.19 3.65281C52.4774 3.36894 51.7738 3.22283 51.0839 3.22283C49.8174 3.22283 48.9913 3.82397 48.5964 5.03045L48.6009 5.04714Z" fill="black"/>
<path d="M68.0513 18.3475C68.6823 18.9195 69 19.6166 69 20.4432C69 21.0151 68.8321 21.5745 68.5007 22.1256C68.1648 22.6766 67.7063 23.1275 67.1208 23.474C66.5352 23.8247 65.8725 23.9958 65.1372 23.9958C64.2384 23.9958 63.4804 23.7119 62.8585 23.14C62.2366 22.5681 61.9144 21.8709 61.8917 21.0443C61.8917 20.4724 62.0505 19.913 62.3728 19.362C62.6951 18.8109 63.149 18.3601 63.7346 18.0136C64.3201 17.6671 64.9828 17.4917 65.7182 17.4917C66.6396 17.4917 67.4158 17.7756 68.0468 18.3475H68.0513Z" fill="black"/>
</g>
<defs>
<clipPath id="clip0_606_21">
<rect width="69" height="24" fill="white"/>
</clipPath>
</defs>
</svg>
